<svg width="145" height="24" viewBox="0 0 145 24" fill="none" xmlns="http://www.w3.org/2000/svg">
<path d="M37.9175 1.44143C37.8483 0.720709 37.471 0.377337 36.7854 0.377337H34.9667C34.383 0.377337 33.9717 0.617576 33.6623 1.13203L29.2373 8.61219L25.1193 1.13203C24.8451 0.617576 24.3986 0.377337 23.8162 0.377337H21.8603C21.1735 0.377337 20.7962 0.720709 20.7283 1.44143L19.5962 15.1654C19.5271 15.9201 19.9044 16.2974 20.6251 16.2974H22.8212C23.5068 16.2974 23.9193 15.954 23.9533 15.2333L24.4338 7.5481L27.0752 12.3177C27.3494 12.8321 27.7959 13.0724 28.3795 13.0724H29.8889C30.4725 13.0724 30.8838 12.8661 31.192 12.3177L34.178 7.20473L34.5202 15.2333C34.5553 15.954 34.9327 16.2974 35.6182 16.2974H37.9854C38.7061 16.2974 39.0835 15.9201 39.0155 15.1654L37.9175 1.44143Z" fill="#0086FF"/>
<path d="M85.9858 12.6599C83.5507 12.6599 82.0061 10.9794 82.0061 8.37196C82.0061 5.72933 83.6186 4.01369 85.9858 4.01369C88.4222 4.01369 89.9655 5.69536 89.9655 8.3028C89.9655 10.9454 88.353 12.6599 85.9858 12.6599ZM93.3629 0.377345H91.4761C90.8234 0.377345 90.3781 0.720717 90.2749 1.37227L90.1718 2.16094C89.1089 1.0289 87.5644 0 84.9909 0C80.6678 0 77.4768 3.39732 77.4768 8.3028C77.4768 13.1064 80.4628 16.6748 84.7167 16.6748C87.3933 16.6748 89.1429 15.5427 90.2058 14.3755L90.3781 15.3365C90.4812 15.954 90.8925 16.2974 91.5441 16.2974H93.3629C94.0496 16.2974 94.4609 15.8861 94.4609 15.1994V1.47541C94.4609 0.788663 94.0496 0.377345 93.3629 0.377345Z" fill="#0086FF"/>
<path d="M67.3552 12.1454C64.988 12.1454 63.3755 10.5681 63.3755 8.13172C63.3755 5.55825 65.0572 4.01369 67.3552 4.01369C69.7236 4.01369 71.3361 5.42115 71.3361 8.06256C71.3361 10.4298 69.6544 12.1454 67.3552 12.1454ZM74.7322 0.377345H72.8455C72.1939 0.377345 71.7474 0.720717 71.6443 1.37227L71.5412 2.16094C70.4783 1.0289 68.9337 0 66.3603 0C62.0372 0 58.8461 3.19105 58.8461 8.09775C58.8461 12.763 61.7969 16.0572 66.0521 16.0572C68.6935 16.0572 70.272 14.9591 71.3361 13.7931V14.5818C71.3361 17.3263 69.7916 19.0759 66.5326 19.0759C65.1603 19.0759 63.9251 18.8017 62.6548 18.2533C62.0032 17.9439 61.4888 18.081 61.1794 18.7338L60.4247 20.2432C60.1165 20.8607 60.2196 21.3752 60.802 21.7186C62.6208 22.7475 64.8509 23.16 67.013 23.16C72.399 23.16 75.8303 19.7627 75.8303 15.0283V1.47541C75.8303 0.788663 75.419 0.377345 74.7322 0.377345Z" fill="#0086FF"/>
<path d="M48.7245 12.6599C46.2894 12.6599 44.7448 10.9794 44.7448 8.37196C44.7448 5.72933 46.3573 4.01369 48.7245 4.01369C51.1609 4.01369 52.7054 5.69536 52.7054 8.3028C52.7054 10.9454 51.0929 12.6599 48.7245 12.6599ZM56.1015 0.377345H54.2148C53.5633 0.377345 53.1168 0.720717 53.0136 1.37227L52.9105 2.16094C51.8476 1.0289 50.303 0 47.7296 0C43.4065 0 40.2167 3.39732 40.2167 8.3028C40.2167 13.1064 43.2014 16.6748 47.4554 16.6748C50.132 16.6748 51.8816 15.5427 52.9457 14.3755L53.1168 15.3365C53.2199 15.954 53.6312 16.2974 54.2828 16.2974H56.1015C56.7883 16.2974 57.1996 15.8861 57.1996 15.1994V1.47541C57.1996 0.788663 56.7883 0.377345 56.1015 0.377345Z" fill="#0086FF"/>
<path d="M107.693 12.1114H103.37C101.859 12.1114 101.071 11.3227 101.071 9.81211V1.47534C101.071 0.788594 100.659 0.377276 99.9727 0.377276H97.5024C96.8157 0.377276 96.4043 0.788594 96.4043 1.47534V10.3957C96.4043 14.0673 98.6344 16.2973 102.306 16.2973H107.693C108.379 16.2973 108.79 15.886 108.79 15.1993V13.2094C108.79 12.5227 108.379 12.1114 107.693 12.1114Z" fill="#0086FF"/>
<path d="M136.147 12.1454C133.78 12.1454 132.167 10.5681 132.167 8.13172C132.167 5.55825 133.848 4.01369 136.147 4.01369C138.514 4.01369 140.127 5.42115 140.127 8.06256C140.127 10.4298 138.446 12.1454 136.147 12.1454ZM143.524 0.377345H141.636C140.984 0.377345 140.539 0.720717 140.436 1.37227L140.333 2.16094C139.269 1.0289 137.725 0 135.152 0C130.829 0 127.638 3.19105 127.638 8.09775C127.638 12.763 130.589 16.0572 134.844 16.0572C137.485 16.0572 139.064 14.9591 140.127 13.7931V14.5818C140.127 17.3263 138.583 19.0759 135.323 19.0759C133.951 19.0759 132.716 18.8017 131.446 18.2533C130.795 17.9439 130.279 18.081 129.971 18.7338L129.216 20.2432C128.907 20.8607 129.01 21.3752 129.594 21.7186C131.413 22.7475 133.643 23.16 135.804 23.16C141.191 23.16 144.622 19.7627 144.622 15.0283V1.47541C144.622 0.788663 144.209 0.377345 143.524 0.377345Z" fill="#0086FF"/>
<path d="M120.278 11.3361C120.967 10.6045 121.312 9.59985 121.312 8.32464C121.312 7.04943 120.98 6.04965 120.317 5.32529C119.653 4.60215 118.787 4.23937 117.719 4.23937C116.65 4.23937 115.767 4.60215 115.069 5.32529C114.37 6.04965 114.022 7.04943 114.022 8.32464C114.022 9.59985 114.358 10.6045 115.03 11.3361C115.702 12.069 116.572 12.4354 117.641 12.4354C118.709 12.4354 119.589 12.069 120.278 11.3361ZM113.245 15.6022C111.987 14.8875 111.023 13.8962 110.35 12.6283C109.678 11.3628 109.342 9.91895 109.342 8.29916C109.342 6.73033 109.692 5.3168 110.389 4.05858C111.087 2.80157 112.07 1.81028 113.336 1.08593C114.603 0.361572 116.047 0 117.667 0C119.339 0 120.803 0.353078 122.061 1.06045C123.32 1.7666 124.289 2.7494 124.97 4.00762C125.65 5.26584 125.991 6.69635 125.991 8.29916C125.991 9.86678 125.642 11.2888 124.944 12.564C124.247 13.8404 123.267 14.8439 122.009 15.5767C120.751 16.3083 119.304 16.6748 117.667 16.6748C115.978 16.6748 114.504 16.3168 113.245 15.6022Z" fill="#0086FF"/>
<path fill-rule="evenodd" clip-rule="evenodd" d="M16.4166 0H6.91865C6.48549 0 6.12392 0.333665 6.08994 0.76561L6.02928 1.51545C5.99045 1.99956 6.37265 2.41331 6.85798 2.41331H16.3547C16.7878 2.41331 17.1482 2.08207 17.1834 1.65013L17.2453 0.900289C17.2853 0.416171 16.9031 0 16.4166 0Z" fill="url(#paint0_linear_6_1563)"/>
<path fill-rule="evenodd" clip-rule="evenodd" d="M2.39902 6.91717H15.9834C16.4154 6.91717 16.7757 6.58472 16.8121 6.15399L16.874 5.40415C16.9141 4.91882 16.5306 4.50386 16.0453 4.50386H2.45968C2.02531 4.50386 1.66495 4.83753 1.63098 5.26947L1.57031 6.01931C1.53149 6.50343 1.91369 6.91717 2.39902 6.91717Z" fill="url(#paint1_linear_6_1563)"/>
<path fill-rule="evenodd" clip-rule="evenodd" d="M4.11094 9.00722C3.67657 9.00722 3.31621 9.33967 3.28103 9.77283L3.22157 10.5227C3.18275 11.0068 3.56494 11.4205 4.05028 11.4205H15.6121C16.044 11.4205 16.4044 11.0881 16.4396 10.6573L16.5014 9.90629C16.5415 9.42218 16.1593 9.00722 15.674 9.00722H4.11094Z" fill="url(#paint2_linear_6_1563)"/>
<path fill-rule="evenodd" clip-rule="evenodd" d="M0.83142 15.9245H15.2397C15.6728 15.9245 16.0332 15.592 16.0684 15.1613L16.1303 14.4102C16.1703 13.9261 15.7881 13.5111 15.3016 13.5111H0.892087C0.457715 13.5111 0.097357 13.8436 0.0633838 14.2755L0.00271741 15.0266C-0.0361091 15.5095 0.346089 15.9245 0.83142 15.9245Z" fill="url(#paint3_linear_6_1563)"/>
<defs>
<linearGradient id="paint0_linear_6_1563" x1="-1.68431" y1="7.96223" x2="18.4751" y2="7.96223" gradientUnits="userSpaceOnUse">
<stop stop-color="#FCD000"/>
<stop offset="0.239216" stop-color="#FCD000"/>
<stop offset="0.929412" stop-color="#FF8A00"/>
<stop offset="1" stop-color="#FF8A00"/>
</linearGradient>
<linearGradient id="paint1_linear_6_1563" x1="-1.359" y1="7.96223" x2="18.849" y2="7.96223" gradientUnits="userSpaceOnUse">
<stop stop-color="#FF253A"/>
<stop offset="0.0117647" stop-color="#FF253A"/>
<stop offset="1" stop-color="#FF37A8"/>
</linearGradient>
<linearGradient id="paint2_linear_6_1563" x1="-1.00814" y1="7.96223" x2="19.2" y2="7.96223" gradientUnits="userSpaceOnUse">
<stop stop-color="#FF37A8"/>
<stop offset="1" stop-color="#A400E1"/>
</linearGradient>
<linearGradient id="paint3_linear_6_1563" x1="-0.628449" y1="14.7184" x2="18.3017" y2="14.7184" gradientUnits="userSpaceOnUse">
<stop stop-color="#00CCE4"/>
<stop offset="0.180392" stop-color="#00CCE4"/>
<stop offset="0.580392" stop-color="#00D174"/>
<stop offset="1" stop-color="#00D604"/>
</linearGradient>
</defs>
</svg>
