<svg width="217" height="35" viewBox="0 0 217 35" fill="none" xmlns="http://www.w3.org/2000/svg">
<path d="M56.7455 2.16214C56.642 1.08106 56.0773 0.566006 55.0513 0.566006H52.3294C51.456 0.566006 50.8405 0.926364 50.3774 1.69804L43.7552 12.9183L37.5923 1.69804C37.182 0.926364 36.5138 0.566006 35.6422 0.566006H32.7151C31.6873 0.566006 31.1226 1.08106 31.0209 2.16214L29.3268 22.7481C29.2233 23.8801 29.788 24.4461 30.8666 24.4461H34.1532C35.1791 24.4461 35.7965 23.9311 35.8474 22.85L36.5664 11.3222L40.5194 18.4765C40.9298 19.2482 41.598 19.6086 42.4714 19.6086H44.7303C45.6037 19.6086 46.2193 19.2992 46.6805 18.4765L51.1492 10.8071L51.6612 22.85C51.7139 23.9311 52.2786 24.4461 53.3045 24.4461H56.8472C57.9258 24.4461 58.4905 23.8801 58.3888 22.7481L56.7455 2.16214Z" fill="white"/>
<path d="M128.682 18.9898C125.038 18.9898 122.726 16.4691 122.726 12.5579C122.726 8.594 125.14 6.02053 128.682 6.02053C132.328 6.02053 134.638 8.54304 134.638 12.4542C134.638 16.4181 132.225 18.9898 128.682 18.9898ZM139.722 0.566017H136.899C135.922 0.566017 135.256 1.08107 135.101 2.05841L134.947 3.2414C133.356 1.54335 131.045 0 127.193 0C120.724 0 115.948 5.09598 115.948 12.4542C115.948 19.6595 120.417 25.0121 126.783 25.0121C130.789 25.0121 133.407 23.3141 134.998 21.5633L135.256 23.0047C135.41 23.9311 136.025 24.4461 137 24.4461H139.722C140.75 24.4461 141.366 23.8291 141.366 22.799V2.21311C141.366 1.18299 140.75 0.566017 139.722 0.566017Z" fill="white"/>
<path d="M100.801 18.2181C97.2579 18.2181 94.8447 15.8521 94.8447 12.1976C94.8447 8.33738 97.3614 6.02053 100.801 6.02053C104.345 6.02053 106.758 8.13172 106.758 12.0938C106.758 15.6446 104.242 18.2181 100.801 18.2181ZM111.841 0.566017H109.017C108.042 0.566017 107.374 1.08107 107.219 2.05841L107.065 3.2414C105.474 1.54335 103.163 0 99.3116 0C92.8419 0 88.0663 4.78658 88.0663 12.1466C88.0663 19.1445 92.4824 24.0858 98.8504 24.0858C102.803 24.0858 105.166 22.4387 106.758 20.6897V21.8727C106.758 25.9895 104.447 28.6139 99.5695 28.6139C97.5158 28.6139 95.6673 28.2026 93.7661 27.38C92.791 26.9159 92.0211 27.1215 91.5581 28.1007L90.4287 30.3647C89.9675 31.2911 90.1218 32.0628 90.9934 32.5778C93.7153 34.1212 97.0527 34.74 100.289 34.74C108.349 34.74 113.484 29.644 113.484 22.5424V2.21311C113.484 1.18299 112.868 0.566017 111.841 0.566017Z" fill="white"/>
<path d="M72.9188 18.9898C69.2745 18.9898 66.9629 16.4691 66.9629 12.5579C66.9629 8.594 69.3762 6.02053 72.9188 6.02053C76.5649 6.02053 78.8765 8.54304 78.8765 12.4542C78.8765 16.4181 76.4632 18.9898 72.9188 18.9898ZM83.9589 0.566017H81.1353C80.1602 0.566017 79.492 1.08107 79.3377 2.05841L79.1833 3.2414C77.5927 1.54335 75.2812 0 71.4298 0C64.9601 0 60.1863 5.09598 60.1863 12.4542C60.1863 19.6595 64.6532 25.0121 71.0195 25.0121C75.0251 25.0121 77.6435 23.3141 79.236 21.5633L79.492 23.0047C79.6464 23.9311 80.2619 24.4461 81.237 24.4461H83.9589C84.9866 24.4461 85.6022 23.8291 85.6022 22.799V2.21311C85.6022 1.18299 84.9866 0.566017 83.9589 0.566017Z" fill="white"/>
<path d="M161.168 18.1671H154.699C152.438 18.1671 151.258 16.9841 151.258 14.7182V2.21301C151.258 1.18289 150.642 0.565914 149.614 0.565914H145.917C144.89 0.565914 144.274 1.18289 144.274 2.21301V15.5936C144.274 21.1009 147.612 24.446 153.106 24.446H161.168C162.194 24.446 162.81 23.829 162.81 22.7989V19.8141C162.81 18.784 162.194 18.1671 161.168 18.1671Z" fill="white"/>
<path d="M203.751 18.2181C200.208 18.2181 197.795 15.8521 197.795 12.1976C197.795 8.33738 200.31 6.02053 203.751 6.02053C207.294 6.02053 209.707 8.13172 209.707 12.0938C209.707 15.6446 207.192 18.2181 203.751 18.2181ZM214.791 0.566017H211.966C210.991 0.566017 210.324 1.08107 210.17 2.05841L210.016 3.2414C208.423 1.54335 206.113 0 202.262 0C195.792 0 191.017 4.78658 191.017 12.1466C191.017 19.1445 195.433 24.0858 201.801 24.0858C205.754 24.0858 208.116 22.4387 209.707 20.6897V21.8727C209.707 25.9895 207.397 28.6139 202.518 28.6139C200.464 28.6139 198.616 28.2026 196.717 27.38C195.741 26.9159 194.97 27.1215 194.509 28.1007L193.379 30.3647C192.916 31.2911 193.07 32.0628 193.944 32.5778C196.666 34.1212 200.003 34.74 203.237 34.74C211.299 34.74 216.434 29.644 216.434 22.5424V2.21311C216.434 1.18299 215.817 0.566017 214.791 0.566017Z" fill="white"/>
<path d="M180.002 17.0042C181.033 15.9067 181.549 14.3998 181.549 12.487C181.549 10.5742 181.053 9.07448 180.06 7.98794C179.067 6.90323 177.77 6.35905 176.173 6.35905C174.573 6.35905 173.251 6.90323 172.207 7.98794C171.161 9.07448 170.64 10.5742 170.64 12.487C170.64 14.3998 171.143 15.9067 172.149 17.0042C173.155 18.1035 174.457 18.6531 176.056 18.6531C177.654 18.6531 178.971 18.1035 180.002 17.0042ZM169.478 23.4033C167.595 22.3313 166.151 20.8444 165.145 18.9425C164.139 17.0442 163.636 14.8784 163.636 12.4487C163.636 10.0955 164.159 7.9752 165.203 6.08787C166.247 4.20236 167.718 2.71543 169.614 1.62889C171.51 0.542357 173.67 0 176.094 0C178.597 0 180.788 0.529617 182.671 1.59067C184.554 2.64991 186.005 4.1241 187.024 6.01143C188.042 7.89876 188.553 10.0445 188.553 12.4487C188.553 14.8002 188.03 16.9332 186.986 18.846C185.942 20.7606 184.476 22.2658 182.593 23.365C180.71 24.4625 178.544 25.0121 176.094 25.0121C173.567 25.0121 171.361 24.4752 169.478 23.4033Z" fill="white"/>
<path fill-rule="evenodd" clip-rule="evenodd" d="M24.5683 0H10.3541C9.70587 0 9.16476 0.500498 9.11391 1.14841L9.02312 2.27317C8.96502 2.99935 9.537 3.61996 10.2633 3.61996H24.4756C25.1239 3.61996 25.6632 3.1231 25.7158 2.47519L25.8085 1.35043C25.8684 0.624257 25.2964 0 24.5683 0Z" fill="white"/>
<path fill-rule="evenodd" clip-rule="evenodd" d="M3.59025 10.3758H23.92C24.5665 10.3758 25.1058 9.87708 25.1602 9.23099L25.2528 8.10623C25.3128 7.37823 24.739 6.7558 24.0126 6.7558H3.68104C3.03098 6.7558 2.49169 7.25629 2.44085 7.90421L2.35006 9.02897C2.29195 9.75514 2.86393 10.3758 3.59025 10.3758Z" fill="white"/>
<path fill-rule="evenodd" clip-rule="evenodd" d="M6.15224 13.5108C5.50218 13.5108 4.96288 14.0095 4.91023 14.6592L4.82125 15.784C4.76314 16.5102 5.33512 17.1308 6.06145 17.1308H23.3643C24.0107 17.1308 24.55 16.6321 24.6027 15.986L24.6953 14.8594C24.7552 14.1333 24.1832 13.5108 23.4569 13.5108H6.15224Z" fill="white"/>
<path fill-rule="evenodd" clip-rule="evenodd" d="M1.24426 23.8867H22.807C23.4552 23.8867 23.9945 23.388 24.0472 22.7419L24.1398 21.6153C24.1997 20.8892 23.6277 20.2667 22.8996 20.2667H1.33505C0.684995 20.2667 0.1457 20.7654 0.0948571 21.4133L0.00406675 22.5399C-0.0540391 23.2642 0.51794 23.8867 1.24426 23.8867Z" fill="white"/>
</svg>
